<svg width="24" height="24" viewBox="0 0 24 24" fill="none" xmlns="http://www.w3.org/2000/svg">
<g clip-path="url(#clip0_46_654)">
<path d="M23.7941 5.4771L18.5222 0.205252C18.2604 -0.0671387 17.7896 -0.0670918 17.5279 0.205252L12.256 5.4771C12.0549 5.67819 11.9948 5.98063 12.1036 6.24336C12.2124 6.5061 12.4688 6.67742 12.7532 6.67742H15.0626V23.2962C15.0626 23.6845 15.3774 23.9993 15.7657 23.9993H20.2844C20.6727 23.9993 20.9876 23.6845 20.9876 23.2962V6.67742H23.2969C23.5813 6.67742 23.8377 6.5061 23.9465 6.24336C24.0553 5.98063 23.9952 5.67824 23.7941 5.4771Z" fill="white"/>
<path d="M12.7531 9.79004H8.23438C7.84606 9.79004 7.53125 10.1049 7.53125 10.4932V23.2963C7.53125 23.6846 7.84606 23.9994 8.23438 23.9994H12.7531C13.1414 23.9994 13.4562 23.6846 13.4562 23.2963V10.4932C13.4562 10.1049 13.1414 9.79004 12.7531 9.79004Z" fill="white"/>
<path d="M5.22188 15.8145H0.703125C0.314812 15.8145 0 16.1293 0 16.5176V23.2957C0 23.684 0.314812 23.9988 0.703125 23.9988H5.22188C5.61019 23.9988 5.925 23.684 5.925 23.2957V16.5176C5.925 16.1293 5.61019 15.8145 5.22188 15.8145Z" fill="white"/>
</g>
<defs>
<clipPath id="clip0_46_654">
<rect width="24" height="24" fill="white"/>
</clipPath>
</defs>
</svg>
