<svg width="24" height="24" viewBox="0 0 24 24" fill="none" xmlns="http://www.w3.org/2000/svg">
<path d="M12.1061 3.04395C9.84009 3.04395 7.99609 4.96195 7.99609 7.31995C7.99609 9.63495 9.73309 11.5099 12.0031 11.5859C12.0681 11.5799 12.1391 11.5789 12.1971 11.5859C12.2111 11.5869 12.2251 11.5879 12.2391 11.5879H12.2531C14.4661 11.5109 16.2071 9.63695 16.2161 7.32095C16.2161 4.96295 14.3731 3.04495 12.1061 3.04495V3.04395Z" fill="white"/>
<path d="M16.5011 13.989C14.0861 12.312 10.1441 12.31 7.71309 13.989C7.71309 13.989 7.71309 13.989 7.71109 13.989C6.61709 14.751 6.01509 15.784 6.01709 16.897C6.01909 18.007 6.62109 19.035 7.71209 19.79C8.92409 20.634 10.5151 21.056 12.1071 21.056C13.6991 21.056 15.2901 20.634 16.5021 19.79C17.5961 19.027 18.1981 17.995 18.1961 16.882C18.1941 15.772 17.5921 14.744 16.5011 13.989Z" fill="white"/>
<path d="M21.6172 7.85099C21.7552 9.59799 20.5632 11.125 18.9062 11.337L18.8892 11.339L18.8642 11.341C18.8132 11.337 18.7632 11.341 18.7142 11.355C17.8762 11.396 17.1042 11.116 16.5232 10.609C17.4132 9.78399 17.9222 8.53799 17.8172 7.19099C17.7562 6.46099 17.5142 5.79199 17.1472 5.22999C17.4782 5.05999 17.8552 4.94699 18.2482 4.91099C19.9602 4.75499 21.4672 6.07099 21.6172 7.85199V7.85099Z" fill="white"/>
<path d="M23.3541 16.1809C23.2811 17.0509 22.7481 17.8069 21.8451 18.3219C20.9781 18.8219 19.8901 19.0479 18.8061 19.0219C19.4291 18.4369 19.7941 17.7109 19.8591 16.9299C19.9441 15.8169 19.4351 14.7399 18.4121 13.8869C17.8351 13.4099 17.1551 13.0309 16.4221 12.7569C18.3381 12.1809 20.7381 12.5709 22.2241 13.8099C23.0191 14.4789 23.4261 15.3199 23.3541 16.1809Z" fill="white"/>
<path d="M2.58703 7.85099C2.44903 9.59799 3.64103 11.125 5.29803 11.337L5.31504 11.339L5.34004 11.341C5.39104 11.337 5.44103 11.341 5.49003 11.355C6.32803 11.396 7.10004 11.116 7.68104 10.609C6.79104 9.78399 6.28204 8.53799 6.38704 7.19099C6.44804 6.46099 6.69003 5.79199 7.05703 5.22999C6.72604 5.05999 6.34903 4.94699 5.95603 4.91099C4.24403 4.75499 2.73703 6.07099 2.58703 7.85199V7.85099Z" fill="white"/>
<path d="M0.850929 16.1809C0.923929 17.0509 1.45693 17.8069 2.35993 18.3219C3.22693 18.8219 4.31493 19.0479 5.39893 19.0219C4.77593 18.4369 4.41093 17.7109 4.34593 16.9299C4.26093 15.8169 4.76993 14.7399 5.79293 13.8869C6.36993 13.4099 7.04993 13.0309 7.78293 12.7569C5.86693 12.1809 3.46693 12.5709 1.98093 13.8099C1.18593 14.4789 0.778929 15.3199 0.850929 16.1809Z" fill="white"/>
</svg>
